# xmcd
#
# Track frame offsets:
#	150
#	10978
#	22972
#	32160
#	41664
#	51953
#	61156
#	71666
#	81589
#	92065
#	102526
#	114829
#	125453
#	136691
#	145134
#	154895
#	166386
#	175388
#	185117
#	193935
#	204716
#	217189
#	228262
#	238296
#	248713
#	260174
#	267094
#	277729
#	286445
#	296480
#
# Disc length: 4072 seconds
#
# Revision: 1
# Processed by: cddbd v1.5.2PL0 Copyright (c) Steve Scherf et al.
# Submitted via: audiograbber 1.83.01
#
DISCID=cd0fe61e
DTITLE=Various Artist - Rockin' Country Style  CLASSICS REC. SWE
DYEAR=2016
DGENRE=Country
TTITLE0=Tommy Carpenter - That's My Style
TTITLE1=Jimmy Ringo - I Like This Kind Of Music
TTITLE2=Nitehawkes - Cut That Out
TTITLE3=Larry Mcgill - I Wanta True Love
TTITLE4=Coy Werley - Rock Bottom Luck
TTITLE5=Eldon Rice - Our Love Won't Die 
TTITLE6=Bill Browning - Down In The Hollow
TTITLE7=Dude Stanphill - Out Honky Tonkin' Again
TTITLE8=Dick Rich - It's All Over
TTITLE9=Slim Edwards - Nite Beat
TTITLE10=Freddy Countryman - Cocaine Blues
TTITLE11=Lynn Cramer - Hey Mister
TTITLE12=Billy Jack Hale - Danger Moved West
TTITLE13=Slim Dusty - No Good Baby
TTITLE14=Johnny Wiggins - Uh Huh
TTITLE15=Dub Dickerson - Mama Laid The Law Down
TTITLE16=Charlie Walker - I'll Never Let It Show
TTITLE17=Rusty and Doug With Wiley Barkdull - The Love I Want
TTITLE18=Charlie Rife - One Little Heart
TTITLE19=Earl Scott - Opal Lee
TTITLE20=Lee Elliott - The Devil And The Deep Blue Sea
TTITLE21=Charlie Rife - Here's The Key
TTITLE22=Carl Sauceman - Who - Ah
TTITLE23=T. Tommy - Bye Bye Love
TTITLE24=Brad Reynolds - Georgie Porgie
TTITLE25=Dick Damron - I Guess That's Life
TTITLE26=Bill Browning - Breaking Hearts
TTITLE27=Bill Anderson - No Song To Sing
TTITLE28=Donny Miller - Alone With You
TTITLE29=Wally and Don - Please Don't
EXTD=
EXTT0=
EXTT1=
EXTT2=
EXTT3=
EXTT4=
EXTT5=
EXTT6=
EXTT7=
EXTT8=
EXTT9=
EXTT10=
EXTT11=
EXTT12=
EXTT13=
EXTT14=
EXTT15=
EXTT16=
EXTT17=
EXTT18=
EXTT19=
EXTT20=
EXTT21=
EXTT22=
EXTT23=
EXTT24=
EXTT25=
EXTT26=
EXTT27=
EXTT28=
EXTT29=
PLAYORDER=
